<svg width="406" height="91" viewBox="0 0 406 91" fill="none" xmlns="http://www.w3.org/2000/svg">
<g filter="url(#filter0_d_2_18)">
<rect x="4" width="398" height="83" rx="20" fill="#03A430"/>
<path d="M84.6201 44.8115H87.832C87.7676 45.8643 87.4775 46.7988 86.9619 47.6152C86.4535 48.4316 85.7409 49.069 84.8242 49.5273C83.9147 49.9857 82.819 50.2148 81.5371 50.2148C80.5345 50.2148 79.6357 50.043 78.8408 49.6992C78.0459 49.3483 77.3656 48.847 76.7998 48.1953C76.2412 47.5436 75.8151 46.7559 75.5215 45.832C75.2279 44.9082 75.0811 43.8734 75.0811 42.7275V41.6426C75.0811 40.4967 75.2314 39.4619 75.5322 38.5381C75.8402 37.6071 76.277 36.8158 76.8428 36.1641C77.4157 35.5124 78.0996 35.0111 78.8945 34.6602C79.6895 34.3092 80.5775 34.1338 81.5586 34.1338C82.862 34.1338 83.9613 34.3701 84.8564 34.8428C85.7588 35.3154 86.457 35.9671 86.9512 36.7979C87.4525 37.6286 87.7533 38.5739 87.8535 39.6338H84.6309C84.5951 39.0036 84.4697 38.4701 84.2549 38.0332C84.04 37.5892 83.7142 37.2562 83.2773 37.0342C82.8477 36.805 82.2747 36.6904 81.5586 36.6904C81.0215 36.6904 80.5524 36.7907 80.1514 36.9912C79.7503 37.1917 79.4137 37.4961 79.1416 37.9043C78.8695 38.3125 78.6654 38.8281 78.5293 39.4512C78.4004 40.0671 78.3359 40.7904 78.3359 41.6211V42.7275C78.3359 43.5368 78.3968 44.2493 78.5186 44.8652C78.6403 45.474 78.8265 45.9896 79.0771 46.4121C79.335 46.8275 79.6644 47.1426 80.0654 47.3574C80.4736 47.5651 80.9642 47.6689 81.5371 47.6689C82.2103 47.6689 82.7653 47.5615 83.2021 47.3467C83.639 47.1318 83.972 46.8132 84.2012 46.3906C84.4375 45.9681 84.5771 45.4417 84.6201 44.8115ZM92.8486 40.9121V50H89.7549V38.377H92.666L92.8486 40.9121ZM96.3506 38.3018L96.2969 41.1699C96.1465 41.1484 95.9639 41.1305 95.749 41.1162C95.5413 41.0947 95.3516 41.084 95.1797 41.084C94.7428 41.084 94.3633 41.1413 94.041 41.2559C93.7259 41.3633 93.4609 41.5244 93.2461 41.7393C93.0384 41.9541 92.8809 42.2155 92.7734 42.5234C92.6732 42.8314 92.6159 43.1823 92.6016 43.5762L91.9785 43.3828C91.9785 42.6309 92.0537 41.9398 92.2041 41.3096C92.3545 40.6722 92.5729 40.1172 92.8594 39.6445C93.153 39.1719 93.5111 38.8066 93.9336 38.5488C94.3561 38.291 94.8395 38.1621 95.3838 38.1621C95.5557 38.1621 95.7311 38.1764 95.9102 38.2051C96.0892 38.2266 96.236 38.2588 96.3506 38.3018ZM101.077 38.377V50H97.9727V38.377H101.077ZM97.7793 35.3477C97.7793 34.8965 97.9368 34.5241 98.252 34.2305C98.5671 33.9368 98.9896 33.79 99.5195 33.79C100.042 33.79 100.461 33.9368 100.776 34.2305C101.099 34.5241 101.26 34.8965 101.26 35.3477C101.26 35.7988 101.099 36.1712 100.776 36.4648C100.461 36.7585 100.042 36.9053 99.5195 36.9053C98.9896 36.9053 98.5671 36.7585 98.252 36.4648C97.9368 36.1712 97.7793 35.7988 97.7793 35.3477ZM109.907 47.3789V42.2012C109.907 41.8288 109.846 41.5101 109.725 41.2451C109.603 40.973 109.413 40.7617 109.155 40.6113C108.905 40.4609 108.579 40.3857 108.178 40.3857C107.834 40.3857 107.537 40.4466 107.286 40.5684C107.035 40.6829 106.842 40.8512 106.706 41.0732C106.57 41.2881 106.502 41.5423 106.502 41.8359H103.408C103.408 41.3418 103.523 40.8727 103.752 40.4287C103.981 39.9847 104.314 39.5944 104.751 39.2578C105.188 38.9141 105.707 38.6455 106.309 38.4521C106.917 38.2588 107.598 38.1621 108.35 38.1621C109.252 38.1621 110.054 38.3125 110.756 38.6133C111.458 38.9141 112.009 39.3652 112.41 39.9668C112.818 40.5684 113.022 41.3203 113.022 42.2227V47.1963C113.022 47.8337 113.062 48.3564 113.141 48.7646C113.219 49.1657 113.334 49.5166 113.484 49.8174V50H110.358C110.208 49.6849 110.093 49.291 110.015 48.8184C109.943 48.3385 109.907 47.8587 109.907 47.3789ZM110.315 42.9209L110.337 44.6719H108.607C108.199 44.6719 107.845 44.7184 107.544 44.8115C107.243 44.9046 106.996 45.0371 106.803 45.209C106.609 45.3737 106.466 45.5671 106.373 45.7891C106.287 46.0111 106.244 46.2546 106.244 46.5195C106.244 46.7845 106.305 47.0244 106.427 47.2393C106.549 47.4469 106.724 47.6117 106.953 47.7334C107.182 47.848 107.451 47.9053 107.759 47.9053C108.224 47.9053 108.629 47.8122 108.973 47.626C109.316 47.4398 109.581 47.2106 109.768 46.9385C109.961 46.6663 110.061 46.4085 110.068 46.165L110.885 47.4756C110.77 47.7692 110.613 48.0736 110.412 48.3887C110.219 48.7038 109.972 49.001 109.671 49.2803C109.37 49.5524 109.008 49.778 108.586 49.957C108.163 50.1289 107.662 50.2148 107.082 50.2148C106.344 50.2148 105.675 50.068 105.073 49.7744C104.479 49.4736 104.006 49.0618 103.655 48.5391C103.312 48.0091 103.14 47.4076 103.14 46.7344C103.14 46.1257 103.254 45.585 103.483 45.1123C103.713 44.6396 104.049 44.2422 104.493 43.9199C104.944 43.5905 105.507 43.3434 106.18 43.1787C106.853 43.0068 107.633 42.9209 108.521 42.9209H110.315ZM118.501 40.9121V50H115.407V38.377H118.318L118.501 40.9121ZM122.003 38.3018L121.949 41.1699C121.799 41.1484 121.616 41.1305 121.401 41.1162C121.194 41.0947 121.004 41.084 120.832 41.084C120.395 41.084 120.016 41.1413 119.693 41.2559C119.378 41.3633 119.113 41.5244 118.898 41.7393C118.691 41.9541 118.533 42.2155 118.426 42.5234C118.326 42.8314 118.268 43.1823 118.254 43.5762L117.631 43.3828C117.631 42.6309 117.706 41.9398 117.856 41.3096C118.007 40.6722 118.225 40.1172 118.512 39.6445C118.805 39.1719 119.163 38.8066 119.586 38.5488C120.008 38.291 120.492 38.1621 121.036 38.1621C121.208 38.1621 121.383 38.1764 121.562 38.2051C121.742 38.2266 121.888 38.2588 122.003 38.3018ZM132.036 40.7832V50H128.932V38.377H131.843L132.036 40.7832ZM131.606 43.7803H130.747C130.747 42.971 130.844 42.2262 131.037 41.5459C131.238 40.8584 131.528 40.264 131.907 39.7627C132.294 39.2542 132.77 38.8604 133.336 38.5811C133.902 38.3018 134.557 38.1621 135.302 38.1621C135.817 38.1621 136.29 38.2409 136.72 38.3984C137.149 38.5488 137.518 38.7887 137.826 39.1182C138.141 39.4404 138.385 39.863 138.557 40.3857C138.729 40.9014 138.814 41.5208 138.814 42.2441V50H135.721V42.5879C135.721 42.0579 135.649 41.6497 135.506 41.3633C135.363 41.0768 135.159 40.8763 134.894 40.7617C134.636 40.6471 134.324 40.5898 133.959 40.5898C133.558 40.5898 133.207 40.6722 132.906 40.8369C132.613 41.0016 132.369 41.2308 132.176 41.5244C131.982 41.8109 131.839 42.1475 131.746 42.5342C131.653 42.9209 131.606 43.3363 131.606 43.7803ZM138.524 43.4258L137.418 43.5654C137.418 42.8063 137.511 42.1009 137.697 41.4492C137.891 40.7975 138.174 40.2246 138.546 39.7305C138.925 39.2363 139.395 38.8532 139.953 38.5811C140.512 38.3018 141.156 38.1621 141.887 38.1621C142.445 38.1621 142.954 38.2445 143.412 38.4092C143.87 38.5667 144.261 38.821 144.583 39.1719C144.912 39.5156 145.163 39.9668 145.335 40.5254C145.514 41.084 145.604 41.7679 145.604 42.5771V50H142.499V42.5771C142.499 42.04 142.427 41.6318 142.284 41.3525C142.148 41.0661 141.948 40.8691 141.683 40.7617C141.425 40.6471 141.117 40.5898 140.759 40.5898C140.386 40.5898 140.061 40.665 139.781 40.8154C139.502 40.9587 139.269 41.1592 139.083 41.417C138.897 41.6748 138.757 41.9756 138.664 42.3193C138.571 42.6559 138.524 43.0247 138.524 43.4258ZM153.349 50.2148C152.446 50.2148 151.637 50.0716 150.921 49.7852C150.205 49.4915 149.596 49.0869 149.095 48.5713C148.601 48.0557 148.221 47.4577 147.956 46.7773C147.691 46.0898 147.559 45.3594 147.559 44.5859V44.1562C147.559 43.2754 147.684 42.4697 147.935 41.7393C148.185 41.0088 148.543 40.375 149.009 39.8379C149.481 39.3008 150.054 38.889 150.728 38.6025C151.401 38.3089 152.16 38.1621 153.005 38.1621C153.828 38.1621 154.559 38.2982 155.196 38.5703C155.834 38.8424 156.367 39.2292 156.797 39.7305C157.234 40.2318 157.563 40.8333 157.785 41.5352C158.007 42.2298 158.118 43.0033 158.118 43.8555V45.1445H148.88V43.082H155.078V42.8457C155.078 42.416 154.999 42.0329 154.842 41.6963C154.691 41.3525 154.462 41.0804 154.154 40.8799C153.846 40.6794 153.452 40.5791 152.973 40.5791C152.564 40.5791 152.214 40.6686 151.92 40.8477C151.626 41.0267 151.386 41.2773 151.2 41.5996C151.021 41.9219 150.885 42.3014 150.792 42.7383C150.706 43.168 150.663 43.6406 150.663 44.1562V44.5859C150.663 45.0514 150.728 45.4811 150.856 45.875C150.993 46.2689 151.182 46.609 151.426 46.8955C151.676 47.182 151.977 47.404 152.328 47.5615C152.686 47.7191 153.091 47.7979 153.542 47.7979C154.101 47.7979 154.62 47.6904 155.1 47.4756C155.587 47.2536 156.006 46.9206 156.356 46.4766L157.86 48.1094C157.617 48.4603 157.284 48.7969 156.861 49.1191C156.446 49.4414 155.945 49.7064 155.357 49.9141C154.77 50.1146 154.101 50.2148 153.349 50.2148ZM166.755 47.2178V38.377H169.849V50H166.938L166.755 47.2178ZM167.099 44.833L168.012 44.8115C168.012 45.585 167.922 46.3047 167.743 46.9707C167.564 47.6296 167.296 48.2025 166.938 48.6895C166.579 49.1693 166.128 49.5452 165.584 49.8174C165.04 50.0824 164.399 50.2148 163.661 50.2148C163.095 50.2148 162.573 50.1361 162.093 49.9785C161.62 49.8138 161.212 49.5596 160.868 49.2158C160.532 48.8649 160.267 48.4173 160.073 47.873C159.887 47.3216 159.794 46.6592 159.794 45.8857V38.377H162.888V45.9072C162.888 46.251 162.927 46.541 163.006 46.7773C163.092 47.0137 163.21 47.207 163.36 47.3574C163.511 47.5078 163.686 47.6152 163.887 47.6797C164.094 47.7441 164.324 47.7764 164.574 47.7764C165.212 47.7764 165.713 47.6475 166.078 47.3896C166.451 47.1318 166.712 46.7809 166.862 46.3369C167.02 45.8857 167.099 45.3844 167.099 44.833ZM182.492 47.7979C182.872 47.7979 183.208 47.7262 183.502 47.583C183.796 47.4326 184.025 47.2249 184.189 46.96C184.361 46.6878 184.451 46.3691 184.458 46.0039H187.369C187.362 46.8203 187.144 47.5472 186.714 48.1846C186.284 48.8148 185.708 49.3125 184.984 49.6777C184.261 50.0358 183.452 50.2148 182.557 50.2148C181.654 50.2148 180.867 50.0645 180.193 49.7637C179.527 49.4629 178.972 49.0475 178.528 48.5176C178.084 47.9805 177.751 47.3574 177.529 46.6484C177.307 45.9323 177.196 45.166 177.196 44.3496V44.0381C177.196 43.2145 177.307 42.4482 177.529 41.7393C177.751 41.0231 178.084 40.4001 178.528 39.8701C178.972 39.333 179.527 38.9141 180.193 38.6133C180.859 38.3125 181.64 38.1621 182.535 38.1621C183.488 38.1621 184.322 38.3447 185.038 38.71C185.761 39.0752 186.327 39.598 186.735 40.2783C187.151 40.9515 187.362 41.75 187.369 42.6738H184.458C184.451 42.2871 184.368 41.9362 184.211 41.6211C184.061 41.306 183.839 41.0553 183.545 40.8691C183.258 40.6758 182.904 40.5791 182.481 40.5791C182.03 40.5791 181.661 40.6758 181.375 40.8691C181.089 41.0553 180.867 41.3132 180.709 41.6426C180.551 41.9648 180.44 42.3337 180.376 42.749C180.319 43.1572 180.29 43.5869 180.29 44.0381V44.3496C180.29 44.8008 180.319 45.234 180.376 45.6494C180.433 46.0648 180.541 46.4336 180.698 46.7559C180.863 47.0781 181.089 47.3324 181.375 47.5186C181.661 47.7048 182.034 47.7979 182.492 47.7979ZM195.437 47.3789V42.2012C195.437 41.8288 195.376 41.5101 195.254 41.2451C195.132 40.973 194.942 40.7617 194.685 40.6113C194.434 40.4609 194.108 40.3857 193.707 40.3857C193.363 40.3857 193.066 40.4466 192.815 40.5684C192.565 40.6829 192.371 40.8512 192.235 41.0732C192.099 41.2881 192.031 41.5423 192.031 41.8359H188.938C188.938 41.3418 189.052 40.8727 189.281 40.4287C189.51 39.9847 189.843 39.5944 190.28 39.2578C190.717 38.9141 191.236 38.6455 191.838 38.4521C192.447 38.2588 193.127 38.1621 193.879 38.1621C194.781 38.1621 195.583 38.3125 196.285 38.6133C196.987 38.9141 197.538 39.3652 197.939 39.9668C198.348 40.5684 198.552 41.3203 198.552 42.2227V47.1963C198.552 47.8337 198.591 48.3564 198.67 48.7646C198.749 49.1657 198.863 49.5166 199.014 49.8174V50H195.888C195.737 49.6849 195.623 49.291 195.544 48.8184C195.472 48.3385 195.437 47.8587 195.437 47.3789ZM195.845 42.9209L195.866 44.6719H194.137C193.729 44.6719 193.374 44.7184 193.073 44.8115C192.772 44.9046 192.525 45.0371 192.332 45.209C192.139 45.3737 191.995 45.5671 191.902 45.7891C191.816 46.0111 191.773 46.2546 191.773 46.5195C191.773 46.7845 191.834 47.0244 191.956 47.2393C192.078 47.4469 192.253 47.6117 192.482 47.7334C192.712 47.848 192.98 47.9053 193.288 47.9053C193.754 47.9053 194.158 47.8122 194.502 47.626C194.846 47.4398 195.111 47.2106 195.297 46.9385C195.49 46.6663 195.59 46.4085 195.598 46.165L196.414 47.4756C196.299 47.7692 196.142 48.0736 195.941 48.3887C195.748 48.7038 195.501 49.001 195.2 49.2803C194.899 49.5524 194.538 49.778 194.115 49.957C193.693 50.1289 193.191 50.2148 192.611 50.2148C191.874 50.2148 191.204 50.068 190.603 49.7744C190.008 49.4736 189.535 49.0618 189.185 48.5391C188.841 48.0091 188.669 47.4076 188.669 46.7344C188.669 46.1257 188.784 45.585 189.013 45.1123C189.242 44.6396 189.578 44.2422 190.022 43.9199C190.474 43.5905 191.036 43.3434 191.709 43.1787C192.382 43.0068 193.163 42.9209 194.051 42.9209H195.845ZM206.63 38.377V40.5684H199.862V38.377H206.63ZM201.538 35.5088H204.632V46.498C204.632 46.8346 204.675 47.0924 204.761 47.2715C204.854 47.4505 204.99 47.5758 205.169 47.6475C205.348 47.7119 205.574 47.7441 205.846 47.7441C206.039 47.7441 206.211 47.737 206.361 47.7227C206.519 47.7012 206.651 47.6797 206.759 47.6582L206.77 49.9355C206.505 50.0215 206.218 50.0895 205.91 50.1396C205.602 50.1898 205.262 50.2148 204.89 50.2148C204.209 50.2148 203.615 50.1038 203.106 49.8818C202.605 49.6527 202.218 49.2874 201.946 48.7861C201.674 48.2848 201.538 47.626 201.538 46.8096V35.5088ZM214.665 47.3789V42.2012C214.665 41.8288 214.604 41.5101 214.482 41.2451C214.361 40.973 214.171 40.7617 213.913 40.6113C213.662 40.4609 213.337 40.3857 212.936 40.3857C212.592 40.3857 212.295 40.4466 212.044 40.5684C211.793 40.6829 211.6 40.8512 211.464 41.0732C211.328 41.2881 211.26 41.5423 211.26 41.8359H208.166C208.166 41.3418 208.281 40.8727 208.51 40.4287C208.739 39.9847 209.072 39.5944 209.509 39.2578C209.946 38.9141 210.465 38.6455 211.066 38.4521C211.675 38.2588 212.355 38.1621 213.107 38.1621C214.01 38.1621 214.812 38.3125 215.514 38.6133C216.215 38.9141 216.767 39.3652 217.168 39.9668C217.576 40.5684 217.78 41.3203 217.78 42.2227V47.1963C217.78 47.8337 217.82 48.3564 217.898 48.7646C217.977 49.1657 218.092 49.5166 218.242 49.8174V50H215.116C214.966 49.6849 214.851 49.291 214.772 48.8184C214.701 48.3385 214.665 47.8587 214.665 47.3789ZM215.073 42.9209L215.095 44.6719H213.365C212.957 44.6719 212.603 44.7184 212.302 44.8115C212.001 44.9046 211.754 45.0371 211.561 45.209C211.367 45.3737 211.224 45.5671 211.131 45.7891C211.045 46.0111 211.002 46.2546 211.002 46.5195C211.002 46.7845 211.063 47.0244 211.185 47.2393C211.306 47.4469 211.482 47.6117 211.711 47.7334C211.94 47.848 212.209 47.9053 212.517 47.9053C212.982 47.9053 213.387 47.8122 213.73 47.626C214.074 47.4398 214.339 47.2106 214.525 46.9385C214.719 46.6663 214.819 46.4085 214.826 46.165L215.643 47.4756C215.528 47.7692 215.37 48.0736 215.17 48.3887C214.977 48.7038 214.729 49.001 214.429 49.2803C214.128 49.5524 213.766 49.778 213.344 49.957C212.921 50.1289 212.42 50.2148 211.84 50.2148C211.102 50.2148 210.433 50.068 209.831 49.7744C209.237 49.4736 208.764 49.0618 208.413 48.5391C208.069 48.0091 207.897 47.4076 207.897 46.7344C207.897 46.1257 208.012 45.585 208.241 45.1123C208.47 44.6396 208.807 44.2422 209.251 43.9199C209.702 43.5905 210.264 43.3434 210.938 43.1787C211.611 43.0068 212.391 42.9209 213.279 42.9209H215.073ZM211.625 36.8086L213.73 33.5H217.093L214.139 36.8086H211.625ZM223.431 33.5V50H220.326V33.5H223.431ZM225.493 44.3066V44.0811C225.493 43.2288 225.615 42.4447 225.858 41.7285C226.102 41.0052 226.456 40.3786 226.922 39.8486C227.387 39.3187 227.96 38.9069 228.641 38.6133C229.321 38.3125 230.102 38.1621 230.982 38.1621C231.863 38.1621 232.647 38.3125 233.335 38.6133C234.022 38.9069 234.599 39.3187 235.064 39.8486C235.537 40.3786 235.895 41.0052 236.139 41.7285C236.382 42.4447 236.504 43.2288 236.504 44.0811V44.3066C236.504 45.1517 236.382 45.9359 236.139 46.6592C235.895 47.3753 235.537 48.002 235.064 48.5391C234.599 49.069 234.026 49.4808 233.346 49.7744C232.665 50.068 231.885 50.2148 231.004 50.2148C230.123 50.2148 229.339 50.068 228.651 49.7744C227.971 49.4808 227.395 49.069 226.922 48.5391C226.456 48.002 226.102 47.3753 225.858 46.6592C225.615 45.9359 225.493 45.1517 225.493 44.3066ZM228.587 44.0811V44.3066C228.587 44.7936 228.63 45.2484 228.716 45.6709C228.802 46.0934 228.938 46.4658 229.124 46.7881C229.317 47.1032 229.568 47.3503 229.876 47.5293C230.184 47.7083 230.56 47.7979 231.004 47.7979C231.434 47.7979 231.802 47.7083 232.11 47.5293C232.418 47.3503 232.665 47.1032 232.852 46.7881C233.038 46.4658 233.174 46.0934 233.26 45.6709C233.353 45.2484 233.399 44.7936 233.399 44.3066V44.0811C233.399 43.6084 233.353 43.1644 233.26 42.749C233.174 42.3265 233.034 41.9541 232.841 41.6318C232.655 41.3024 232.408 41.0446 232.1 40.8584C231.792 40.6722 231.419 40.5791 230.982 40.5791C230.546 40.5791 230.173 40.6722 229.865 40.8584C229.564 41.0446 229.317 41.3024 229.124 41.6318C228.938 41.9541 228.802 42.3265 228.716 42.749C228.63 43.1644 228.587 43.6084 228.587 44.0811ZM245.764 38.377H248.567V49.6133C248.567 50.6732 248.331 51.5719 247.858 52.3096C247.393 53.0544 246.741 53.6165 245.903 53.9961C245.065 54.3828 244.091 54.5762 242.981 54.5762C242.494 54.5762 241.979 54.5117 241.435 54.3828C240.897 54.2539 240.382 54.0534 239.888 53.7812C239.401 53.5091 238.993 53.1654 238.663 52.75L240.027 50.9238C240.385 51.3392 240.801 51.6615 241.273 51.8906C241.746 52.127 242.269 52.2451 242.842 52.2451C243.4 52.2451 243.873 52.1413 244.26 51.9336C244.646 51.7331 244.944 51.4359 245.151 51.042C245.359 50.6553 245.463 50.1862 245.463 49.6348V41.0625L245.764 38.377ZM237.943 44.3281V44.1025C237.943 43.2145 238.051 42.4089 238.266 41.6855C238.488 40.9551 238.799 40.3285 239.2 39.8057C239.608 39.2829 240.103 38.8783 240.683 38.5918C241.263 38.3053 241.918 38.1621 242.648 38.1621C243.422 38.1621 244.07 38.3053 244.593 38.5918C245.116 38.8783 245.545 39.2865 245.882 39.8164C246.218 40.3392 246.48 40.9587 246.666 41.6748C246.859 42.3838 247.01 43.1608 247.117 44.0059V44.5C247.01 45.3092 246.849 46.0612 246.634 46.7559C246.419 47.4505 246.136 48.0592 245.785 48.582C245.434 49.0977 244.997 49.4987 244.475 49.7852C243.959 50.0716 243.343 50.2148 242.627 50.2148C241.911 50.2148 241.263 50.068 240.683 49.7744C240.11 49.4808 239.619 49.069 239.211 48.5391C238.803 48.0091 238.488 47.3861 238.266 46.6699C238.051 45.9538 237.943 45.1732 237.943 44.3281ZM241.037 44.1025V44.3281C241.037 44.8079 241.084 45.2555 241.177 45.6709C241.27 46.0863 241.413 46.4551 241.606 46.7773C241.807 47.0924 242.054 47.3395 242.348 47.5186C242.648 47.6904 243.003 47.7764 243.411 47.7764C243.977 47.7764 244.439 47.6582 244.797 47.4219C245.155 47.1784 245.424 46.8454 245.603 46.4229C245.782 46.0003 245.885 45.5133 245.914 44.9619V43.5547C245.9 43.1035 245.839 42.6989 245.731 42.3408C245.624 41.9756 245.474 41.6641 245.28 41.4062C245.087 41.1484 244.836 40.9479 244.528 40.8047C244.22 40.6615 243.855 40.5898 243.433 40.5898C243.024 40.5898 242.67 40.6829 242.369 40.8691C242.076 41.0482 241.828 41.2952 241.628 41.6104C241.435 41.9255 241.288 42.2979 241.188 42.7275C241.087 43.1501 241.037 43.6084 241.037 44.1025ZM250.479 44.3066V44.0811C250.479 43.2288 250.601 42.4447 250.845 41.7285C251.088 41.0052 251.443 40.3786 251.908 39.8486C252.374 39.3187 252.947 38.9069 253.627 38.6133C254.307 38.3125 255.088 38.1621 255.969 38.1621C256.85 38.1621 257.634 38.3125 258.321 38.6133C259.009 38.9069 259.585 39.3187 260.051 39.8486C260.523 40.3786 260.882 41.0052 261.125 41.7285C261.368 42.4447 261.49 43.2288 261.49 44.0811V44.3066C261.49 45.1517 261.368 45.9359 261.125 46.6592C260.882 47.3753 260.523 48.002 260.051 48.5391C259.585 49.069 259.012 49.4808 258.332 49.7744C257.652 50.068 256.871 50.2148 255.99 50.2148C255.109 50.2148 254.325 50.068 253.638 49.7744C252.957 49.4808 252.381 49.069 251.908 48.5391C251.443 48.002 251.088 47.3753 250.845 46.6592C250.601 45.9359 250.479 45.1517 250.479 44.3066ZM253.573 44.0811V44.3066C253.573 44.7936 253.616 45.2484 253.702 45.6709C253.788 46.0934 253.924 46.4658 254.11 46.7881C254.304 47.1032 254.554 47.3503 254.862 47.5293C255.17 47.7083 255.546 47.7979 255.99 47.7979C256.42 47.7979 256.789 47.7083 257.097 47.5293C257.405 47.3503 257.652 47.1032 257.838 46.7881C258.024 46.4658 258.16 46.0934 258.246 45.6709C258.339 45.2484 258.386 44.7936 258.386 44.3066V44.0811C258.386 43.6084 258.339 43.1644 258.246 42.749C258.16 42.3265 258.021 41.9541 257.827 41.6318C257.641 41.3024 257.394 41.0446 257.086 40.8584C256.778 40.6722 256.406 40.5791 255.969 40.5791C255.532 40.5791 255.16 40.6722 254.852 40.8584C254.551 41.0446 254.304 41.3024 254.11 41.6318C253.924 41.9541 253.788 42.3265 253.702 42.749C253.616 43.1644 253.573 43.6084 253.573 44.0811ZM275.144 47.3789V42.2012C275.144 41.8288 275.083 41.5101 274.961 41.2451C274.839 40.973 274.649 40.7617 274.392 40.6113C274.141 40.4609 273.815 40.3857 273.414 40.3857C273.07 40.3857 272.773 40.4466 272.522 40.5684C272.272 40.6829 272.078 40.8512 271.942 41.0732C271.806 41.2881 271.738 41.5423 271.738 41.8359H268.645C268.645 41.3418 268.759 40.8727 268.988 40.4287C269.217 39.9847 269.55 39.5944 269.987 39.2578C270.424 38.9141 270.943 38.6455 271.545 38.4521C272.154 38.2588 272.834 38.1621 273.586 38.1621C274.488 38.1621 275.29 38.3125 275.992 38.6133C276.694 38.9141 277.245 39.3652 277.646 39.9668C278.055 40.5684 278.259 41.3203 278.259 42.2227V47.1963C278.259 47.8337 278.298 48.3564 278.377 48.7646C278.456 49.1657 278.57 49.5166 278.721 49.8174V50H275.595C275.444 49.6849 275.33 49.291 275.251 48.8184C275.179 48.3385 275.144 47.8587 275.144 47.3789ZM275.552 42.9209L275.573 44.6719H273.844C273.436 44.6719 273.081 44.7184 272.78 44.8115C272.479 44.9046 272.232 45.0371 272.039 45.209C271.846 45.3737 271.702 45.5671 271.609 45.7891C271.523 46.0111 271.48 46.2546 271.48 46.5195C271.48 46.7845 271.541 47.0244 271.663 47.2393C271.785 47.4469 271.96 47.6117 272.189 47.7334C272.419 47.848 272.687 47.9053 272.995 47.9053C273.461 47.9053 273.865 47.8122 274.209 47.626C274.553 47.4398 274.818 47.2106 275.004 46.9385C275.197 46.6663 275.298 46.4085 275.305 46.165L276.121 47.4756C276.007 47.7692 275.849 48.0736 275.648 48.3887C275.455 48.7038 275.208 49.001 274.907 49.2803C274.606 49.5524 274.245 49.778 273.822 49.957C273.4 50.1289 272.898 50.2148 272.318 50.2148C271.581 50.2148 270.911 50.068 270.31 49.7744C269.715 49.4736 269.243 49.0618 268.892 48.5391C268.548 48.0091 268.376 47.4076 268.376 46.7344C268.376 46.1257 268.491 45.585 268.72 45.1123C268.949 44.6396 269.285 44.2422 269.729 43.9199C270.181 43.5905 270.743 43.3434 271.416 43.1787C272.089 43.0068 272.87 42.9209 273.758 42.9209H275.552ZM288.002 38.377H290.806V49.6133C290.806 50.6732 290.569 51.5719 290.097 52.3096C289.631 53.0544 288.979 53.6165 288.142 53.9961C287.304 54.3828 286.33 54.5762 285.22 54.5762C284.733 54.5762 284.217 54.5117 283.673 54.3828C283.136 54.2539 282.62 54.0534 282.126 53.7812C281.639 53.5091 281.231 53.1654 280.901 52.75L282.266 50.9238C282.624 51.3392 283.039 51.6615 283.512 51.8906C283.984 52.127 284.507 52.2451 285.08 52.2451C285.639 52.2451 286.111 52.1413 286.498 51.9336C286.885 51.7331 287.182 51.4359 287.39 51.042C287.597 50.6553 287.701 50.1862 287.701 49.6348V41.0625L288.002 38.377ZM280.182 44.3281V44.1025C280.182 43.2145 280.289 42.4089 280.504 41.6855C280.726 40.9551 281.037 40.3285 281.438 39.8057C281.847 39.2829 282.341 38.8783 282.921 38.5918C283.501 38.3053 284.156 38.1621 284.887 38.1621C285.66 38.1621 286.308 38.3053 286.831 38.5918C287.354 38.8783 287.784 39.2865 288.12 39.8164C288.457 40.3392 288.718 40.9587 288.904 41.6748C289.098 42.3838 289.248 43.1608 289.355 44.0059V44.5C289.248 45.3092 289.087 46.0612 288.872 46.7559C288.657 47.4505 288.374 48.0592 288.023 48.582C287.673 49.0977 287.236 49.4987 286.713 49.7852C286.197 50.0716 285.581 50.2148 284.865 50.2148C284.149 50.2148 283.501 50.068 282.921 49.7744C282.348 49.4808 281.857 49.069 281.449 48.5391C281.041 48.0091 280.726 47.3861 280.504 46.6699C280.289 45.9538 280.182 45.1732 280.182 44.3281ZM283.275 44.1025V44.3281C283.275 44.8079 283.322 45.2555 283.415 45.6709C283.508 46.0863 283.651 46.4551 283.845 46.7773C284.045 47.0924 284.292 47.3395 284.586 47.5186C284.887 47.6904 285.241 47.7764 285.649 47.7764C286.215 47.7764 286.677 47.6582 287.035 47.4219C287.393 47.1784 287.662 46.8454 287.841 46.4229C288.02 46.0003 288.124 45.5133 288.152 44.9619V43.5547C288.138 43.1035 288.077 42.6989 287.97 42.3408C287.862 41.9756 287.712 41.6641 287.519 41.4062C287.325 41.1484 287.075 40.9479 286.767 40.8047C286.459 40.6615 286.093 40.5898 285.671 40.5898C285.263 40.5898 284.908 40.6829 284.607 40.8691C284.314 41.0482 284.067 41.2952 283.866 41.6104C283.673 41.9255 283.526 42.2979 283.426 42.7275C283.326 43.1501 283.275 43.6084 283.275 44.1025ZM292.718 44.3066V44.0811C292.718 43.2288 292.84 42.4447 293.083 41.7285C293.326 41.0052 293.681 40.3786 294.146 39.8486C294.612 39.3187 295.185 38.9069 295.865 38.6133C296.546 38.3125 297.326 38.1621 298.207 38.1621C299.088 38.1621 299.872 38.3125 300.56 38.6133C301.247 38.9069 301.824 39.3187 302.289 39.8486C302.762 40.3786 303.12 41.0052 303.363 41.7285C303.607 42.4447 303.729 43.2288 303.729 44.0811V44.3066C303.729 45.1517 303.607 45.9359 303.363 46.6592C303.12 47.3753 302.762 48.002 302.289 48.5391C301.824 49.069 301.251 49.4808 300.57 49.7744C299.89 50.068 299.109 50.2148 298.229 50.2148C297.348 50.2148 296.563 50.068 295.876 49.7744C295.196 49.4808 294.619 49.069 294.146 48.5391C293.681 48.002 293.326 47.3753 293.083 46.6592C292.84 45.9359 292.718 45.1517 292.718 44.3066ZM295.812 44.0811V44.3066C295.812 44.7936 295.854 45.2484 295.94 45.6709C296.026 46.0934 296.162 46.4658 296.349 46.7881C296.542 47.1032 296.793 47.3503 297.101 47.5293C297.409 47.7083 297.785 47.7979 298.229 47.7979C298.658 47.7979 299.027 47.7083 299.335 47.5293C299.643 47.3503 299.89 47.1032 300.076 46.7881C300.262 46.4658 300.398 46.0934 300.484 45.6709C300.577 45.2484 300.624 44.7936 300.624 44.3066V44.0811C300.624 43.6084 300.577 43.1644 300.484 42.749C300.398 42.3265 300.259 41.9541 300.065 41.6318C299.879 41.3024 299.632 41.0446 299.324 40.8584C299.016 40.6722 298.644 40.5791 298.207 40.5791C297.77 40.5791 297.398 40.6722 297.09 40.8584C296.789 41.0446 296.542 41.3024 296.349 41.6318C296.162 41.9541 296.026 42.3265 295.94 42.749C295.854 43.1644 295.812 43.6084 295.812 44.0811ZM308.724 40.9121V50H305.63V38.377H308.541L308.724 40.9121ZM312.226 38.3018L312.172 41.1699C312.021 41.1484 311.839 41.1305 311.624 41.1162C311.416 41.0947 311.227 41.084 311.055 41.084C310.618 41.084 310.238 41.1413 309.916 41.2559C309.601 41.3633 309.336 41.5244 309.121 41.7393C308.913 41.9541 308.756 42.2155 308.648 42.5234C308.548 42.8314 308.491 43.1823 308.477 43.5762L307.854 43.3828C307.854 42.6309 307.929 41.9398 308.079 41.3096C308.229 40.6722 308.448 40.1172 308.734 39.6445C309.028 39.1719 309.386 38.8066 309.809 38.5488C310.231 38.291 310.715 38.1621 311.259 38.1621C311.431 38.1621 311.606 38.1764 311.785 38.2051C311.964 38.2266 312.111 38.2588 312.226 38.3018ZM319.595 47.3789V42.2012C319.595 41.8288 319.534 41.5101 319.412 41.2451C319.29 40.973 319.101 40.7617 318.843 40.6113C318.592 40.4609 318.266 40.3857 317.865 40.3857C317.521 40.3857 317.224 40.4466 316.974 40.5684C316.723 40.6829 316.53 40.8512 316.394 41.0732C316.257 41.2881 316.189 41.5423 316.189 41.8359H313.096C313.096 41.3418 313.21 40.8727 313.439 40.4287C313.669 39.9847 314.002 39.5944 314.438 39.2578C314.875 38.9141 315.395 38.6455 315.996 38.4521C316.605 38.2588 317.285 38.1621 318.037 38.1621C318.939 38.1621 319.742 38.3125 320.443 38.6133C321.145 38.9141 321.697 39.3652 322.098 39.9668C322.506 40.5684 322.71 41.3203 322.71 42.2227V47.1963C322.71 47.8337 322.749 48.3564 322.828 48.7646C322.907 49.1657 323.021 49.5166 323.172 49.8174V50H320.046C319.896 49.6849 319.781 49.291 319.702 48.8184C319.631 48.3385 319.595 47.8587 319.595 47.3789ZM320.003 42.9209L320.024 44.6719H318.295C317.887 44.6719 317.532 44.7184 317.231 44.8115C316.931 44.9046 316.684 45.0371 316.49 45.209C316.297 45.3737 316.154 45.5671 316.061 45.7891C315.975 46.0111 315.932 46.2546 315.932 46.5195C315.932 46.7845 315.993 47.0244 316.114 47.2393C316.236 47.4469 316.411 47.6117 316.641 47.7334C316.87 47.848 317.138 47.9053 317.446 47.9053C317.912 47.9053 318.316 47.8122 318.66 47.626C319.004 47.4398 319.269 47.2106 319.455 46.9385C319.648 46.6663 319.749 46.4085 319.756 46.165L320.572 47.4756C320.458 47.7692 320.3 48.0736 320.1 48.3887C319.906 48.7038 319.659 49.001 319.358 49.2803C319.058 49.5524 318.696 49.778 318.273 49.957C317.851 50.1289 317.35 50.2148 316.77 50.2148C316.032 50.2148 315.362 50.068 314.761 49.7744C314.166 49.4736 313.694 49.0618 313.343 48.5391C312.999 48.0091 312.827 47.4076 312.827 46.7344C312.827 46.1257 312.942 45.585 313.171 45.1123C313.4 44.6396 313.737 44.2422 314.181 43.9199C314.632 43.5905 315.194 43.3434 315.867 43.1787C316.54 43.0068 317.321 42.9209 318.209 42.9209H320.003ZM328.586 34.3594L328.231 45.2197H325.653L325.288 34.3594H328.586ZM325.202 48.582C325.202 48.1237 325.36 47.7441 325.675 47.4434C325.997 47.1354 326.42 46.9814 326.942 46.9814C327.472 46.9814 327.895 47.1354 328.21 47.4434C328.525 47.7441 328.683 48.1237 328.683 48.582C328.683 49.026 328.525 49.402 328.21 49.71C327.895 50.0179 327.472 50.1719 326.942 50.1719C326.42 50.1719 325.997 50.0179 325.675 49.71C325.36 49.402 325.202 49.026 325.202 48.582Z" fill="white"/>
</g>
<defs>
<filter id="filter0_d_2_18" x="0" y="0" width="406" height="91" filterUnits="userSpaceOnUse" color-interpolation-filters="sRGB">
<feFlood flood-opacity="0" result="BackgroundImageFix"/>
<feColorMatrix in="SourceAlpha" type="matrix" values="0 0 0 0 0 0 0 0 0 0 0 0 0 0 0 0 0 0 127 0" result="hardAlpha"/>
<feOffset dy="4"/>
<feGaussianBlur stdDeviation="2"/>
<feComposite in2="hardAlpha" operator="out"/>
<feColorMatrix type="matrix" values="0 0 0 0 0 0 0 0 0 0 0 0 0 0 0 0 0 0 0.25 0"/>
<feBlend mode="normal" in2="BackgroundImageFix" result="effect1_dropShadow_2_18"/>
<feBlend mode="normal" in="SourceGraphic" in2="effect1_dropShadow_2_18" result="shape"/>
</filter>
</defs>
</svg>
