<svg width="124" height="124" viewBox="0 0 124 124" fill="none" xmlns="http://www.w3.org/2000/svg">
<path d="M7.75 36.8125C7.75 32.1878 9.58716 27.7525 12.8573 24.4823C16.1275 21.2122 20.5628 19.375 25.1875 19.375H98.8125C103.437 19.375 107.873 21.2122 111.143 24.4823C114.413 27.7525 116.25 32.1878 116.25 36.8125V87.1875C116.25 91.8122 114.413 96.2475 111.143 99.5177C107.873 102.788 103.437 104.625 98.8125 104.625H25.1875C20.5628 104.625 16.1275 102.788 12.8573 99.5177C9.58716 96.2475 7.75 91.8122 7.75 87.1875V36.8125ZM25.1875 27.125C22.6182 27.125 20.1542 28.1456 18.3374 29.9624C16.5206 31.7792 15.5 34.2432 15.5 36.8125V42.625H108.5V36.8125C108.5 34.2432 107.479 31.7792 105.663 29.9624C103.846 28.1456 101.382 27.125 98.8125 27.125H25.1875ZM15.5 87.1875C15.5 89.7568 16.5206 92.2208 18.3374 94.0376C20.1542 95.8544 22.6182 96.875 25.1875 96.875H98.8125C101.382 96.875 103.846 95.8544 105.663 94.0376C107.479 92.2208 108.5 89.7568 108.5 87.1875V50.375H15.5V87.1875ZM81.375 73.625H93C94.0277 73.625 95.0133 74.0333 95.74 74.76C96.4667 75.4867 96.875 76.4723 96.875 77.5C96.875 78.5277 96.4667 79.5133 95.74 80.24C95.0133 80.9667 94.0277 81.375 93 81.375H81.375C80.3473 81.375 79.3617 80.9667 78.635 80.24C77.9083 79.5133 77.5 78.5277 77.5 77.5C77.5 76.4723 77.9083 75.4867 78.635 74.76C79.3617 74.0333 80.3473 73.625 81.375 73.625Z" fill="#9841E2"/>
</svg>
