<svg width="119" height="119" viewBox="0 0 119 119" fill="none" xmlns="http://www.w3.org/2000/svg">
<path d="M115.192 92.8758L96.5945 111.473C94.1401 113.849 90.8501 115.165 87.4341 115.138C84.0182 115.11 80.7499 113.741 78.3341 111.326C75.9183 108.911 74.5486 105.643 74.5203 102.227C74.4921 98.8106 75.8075 95.5204 78.183 93.0654L83.4413 98.3238C82.3949 99.3702 81.807 100.789 81.807 102.269C81.807 103.749 82.3949 105.169 83.4413 106.215C84.4877 107.261 85.907 107.849 87.3869 107.849C88.8668 107.849 90.286 107.261 91.3325 106.215L109.934 87.6138C110.98 86.5673 111.568 85.148 111.568 83.6682C111.568 82.1883 110.98 80.769 109.934 79.7226C108.887 78.6761 107.468 78.0882 105.988 78.0882C104.508 78.0882 103.089 78.6761 102.042 79.7226L96.7805 74.4643C99.2282 72.0547 102.529 70.7101 105.964 70.7233C109.398 70.7365 112.689 72.1064 115.118 74.5346C117.547 76.9628 118.918 80.2526 118.933 83.6873C118.948 87.122 117.604 90.4233 115.196 92.8721L115.192 92.8758Z" fill="#9841E2"/>
<path d="M74.468 78.183L55.8705 96.7804C53.4945 99.2349 52.1784 102.525 52.206 105.941C52.2336 109.357 53.6026 112.625 56.0179 115.041C58.4332 117.457 61.7012 118.826 65.1172 118.855C68.5331 118.883 71.8234 117.567 74.2783 115.192L69.02 109.934C67.9736 110.98 66.5543 111.568 65.0744 111.568C63.5945 111.568 62.1752 110.98 61.1288 109.934C60.0824 108.887 59.4945 107.468 59.4945 105.988C59.4945 104.508 60.0824 103.089 61.1288 102.042L79.73 83.4413C80.7764 82.3948 82.1957 81.807 83.6756 81.807C85.1555 81.807 86.5747 82.3948 87.6212 83.4413C88.6676 84.4877 89.2555 85.907 89.2555 87.3869C89.2555 88.8668 88.6676 90.286 87.6212 91.3325L92.8795 96.5945C95.289 94.1467 96.6336 90.846 96.6204 87.4113C96.6073 83.9766 95.2373 80.6862 92.8091 78.257C90.3809 75.8278 87.0911 74.4566 83.6564 74.442C80.2217 74.4274 76.9204 75.7707 74.4717 78.1793L74.468 78.183Z" fill="#9841E2"/>
<path d="M26.0312 81.8125C30.1389 81.8125 33.4688 78.4826 33.4688 74.375C33.4688 70.2674 30.1389 66.9375 26.0312 66.9375C21.9236 66.9375 18.5938 70.2674 18.5938 74.375C18.5938 78.4826 21.9236 81.8125 26.0312 81.8125Z" fill="#9841E2"/>
<path d="M52.0625 74.375C49.1205 74.375 46.2446 73.5026 43.7984 71.8681C41.3522 70.2336 39.4457 67.9105 38.3198 65.1924C37.1939 62.4744 36.8994 59.4835 37.4733 56.598C38.0473 53.7126 39.464 51.0621 41.5443 48.9818C43.6246 46.9015 46.2751 45.4848 49.1605 44.9108C52.046 44.3369 55.0369 44.6314 57.7549 45.7573C60.473 46.8832 62.7961 48.7897 64.4306 51.2359C66.0651 53.6821 66.9375 56.558 66.9375 59.5C66.9257 63.4415 65.3548 67.2182 62.5677 70.0052C59.7807 72.7923 56.004 74.3632 52.0625 74.375ZM52.0625 52.0625C50.5915 52.0625 49.1535 52.4987 47.9305 53.316C46.7074 54.1332 45.7541 55.2948 45.1912 56.6538C44.6282 58.0128 44.4809 59.5083 44.7679 60.951C45.0549 62.3937 45.7632 63.719 46.8034 64.7591C47.8436 65.7993 49.1688 66.5076 50.6115 66.7946C52.0543 67.0816 53.5497 66.9343 54.9087 66.3714C56.2677 65.8084 57.4293 64.8552 58.2466 63.6321C59.0638 62.409 59.5 60.971 59.5 59.5C59.4941 57.5293 58.7086 55.6409 57.3151 54.2474C55.9216 52.8539 54.0332 52.0684 52.0625 52.0625Z" fill="#9841E2"/>
<path d="M78.0938 52.0625C82.2014 52.0625 85.5312 48.7326 85.5312 44.625C85.5312 40.5174 82.2014 37.1875 78.0938 37.1875C73.9861 37.1875 70.6562 40.5174 70.6562 44.625C70.6562 48.7326 73.9861 52.0625 78.0938 52.0625Z" fill="#9841E2"/>
<path d="M42.0516 101.421L11.1562 83.393V35.6033L52.0625 11.7438L94.8132 36.6818L98.5617 30.2558L53.9367 4.2245C53.3679 3.89256 52.7211 3.71765 52.0625 3.71765C51.4039 3.71765 50.7571 3.89256 50.1882 4.2245L5.56325 30.2558C5.0018 30.5834 4.53604 31.0525 4.2124 31.6162C3.88876 32.18 3.71856 32.8187 3.71875 33.4688V85.5312C3.71856 86.1813 3.88876 86.82 4.2124 87.3838C4.53604 87.9475 5.0018 88.4166 5.56325 88.7443L38.3031 107.844L42.0516 101.421Z" fill="#9841E2"/>
</svg>
