<svg width="103" height="103" viewBox="0 0 103 103" fill="none" xmlns="http://www.w3.org/2000/svg">
<g clip-path="url(#clip0_4_69)">
<path fill-rule="evenodd" clip-rule="evenodd" d="M74.7394 61.7229C73.4605 61.0834 67.1903 58.002 66.023 57.5728C64.8557 57.148 64.0059 56.9377 63.1519 58.2166C62.3021 59.4869 59.8602 62.3623 59.1177 63.2121C58.371 64.0661 57.6285 64.1691 56.3539 63.534C55.0792 62.8902 50.9678 61.5469 46.0968 57.2037C42.3073 53.8219 39.7451 49.6461 39.0027 48.3672C38.2602 47.0926 38.9211 46.4016 39.5606 45.7664C40.1357 45.1957 40.8352 44.2772 41.4747 43.5348C42.1141 42.788 42.3244 42.2559 42.7493 41.4018C43.1785 40.5521 42.9639 39.8096 42.642 39.1702C42.3244 38.5307 39.7752 32.252 38.7108 29.6985C37.6765 27.2136 36.6251 27.5526 35.844 27.5097C35.0972 27.4754 34.2475 27.4668 33.3978 27.4668C32.548 27.4668 31.1661 27.7844 29.9987 29.0633C28.8271 30.3379 25.5354 33.4236 25.5354 39.7023C25.5354 45.9767 30.1017 52.0409 30.7412 52.8949C31.3807 53.7447 39.7323 66.6282 52.5257 72.1516C55.5728 73.4649 57.9461 74.2502 59.7958 74.8339C62.8515 75.8081 65.6325 75.6708 67.8298 75.3403C70.276 74.9755 75.3745 72.2546 76.4389 69.2762C77.4989 66.2978 77.4989 63.7442 77.1813 63.2121C76.8637 62.6799 76.014 62.3623 74.7351 61.7229H74.7394ZM51.47 93.4941H51.4528C43.8541 93.4955 36.3949 91.4528 29.8571 87.5802L28.3121 86.6617L12.2527 90.8762L16.5401 75.2202L15.5315 73.6151C11.2834 66.8529 9.03522 59.0267 9.04683 51.0409C9.05542 27.6513 28.0847 8.62207 51.4871 8.62207C62.8171 8.62207 73.469 13.0425 81.4773 21.0593C85.4272 24.993 88.558 29.6708 90.6884 34.8223C92.8188 39.9737 93.9066 45.4964 93.8888 51.0709C93.8802 74.4605 74.851 93.4941 51.47 93.4941ZM87.5715 14.9694C82.8429 10.2097 77.2167 6.43563 71.0189 3.86605C64.8211 1.29647 58.175 -0.0175549 51.4657 0.000114827C23.3381 0.000114827 0.43775 22.8962 0.429167 51.0366C0.416133 59.9923 2.76544 68.7929 7.24004 76.5506L0 103L27.0547 95.9017C34.5388 99.9793 42.9256 102.116 51.4485 102.116H51.47C79.5975 102.116 102.498 79.22 102.506 51.0752C102.527 44.3685 101.218 37.7243 98.6544 31.5268C96.0908 25.3294 92.3239 19.7017 87.5715 14.9694Z" fill="#9841E2"/>
</g>
<defs>
<clipPath id="clip0_4_69">
<rect width="103" height="103" fill="white"/>
</clipPath>
</defs>
</svg>
